<svg width="33" height="33" viewBox="0 0 33 33" fill="none" xmlns="http://www.w3.org/2000/svg">
<g filter="url(#filter0_b_86_9)">
<rect width="33" height="33" rx="16.5" fill="url(#paint0_linear_86_9)" fill-opacity="0.8"/>
<rect x="0.5" y="0.5" width="32" height="32" rx="16" stroke="white" stroke-opacity="0.2"/>
<path d="M24.44 23.88L23.39 24.06C23.15 24.1 22.9 24.1 22.64 24.06C22.38 24.02 22.11 24 21.83 24C21.77 24 21.68 24 21.56 24C21.44 24 21.3 24 21.14 24C21 24 20.86 24.01 20.72 24.03C20.58 24.03 20.46 24.03 20.36 24.03L19.7 23.58C19.76 23.18 19.74 22.89 19.64 22.71C19.56 22.53 19.5 22.36 19.46 22.2C19.42 22.08 19.34 21.89 19.22 21.63C19.1 21.37 18.99 21.07 18.89 20.73C18.89 20.67 18.79 20.49 18.59 20.19C18.39 19.89 18.23 19.62 18.11 19.38L17.75 19.53C17.65 19.53 17.54 19.56 17.42 19.62C17.3 19.68 17 19.71 16.52 19.71C16.46 19.59 16.36 19.51 16.22 19.47C16.08 19.41 15.92 19.4 15.74 19.44C15.58 19.46 15.41 19.52 15.23 19.62C15.07 19.72 14.93 19.84 14.81 19.98L13.58 20.16C13.5 19.98 13.41 19.84 13.31 19.74C13.23 19.62 13.14 19.51 13.04 19.41C12.96 19.31 12.89 19.2 12.83 19.08C12.77 18.96 12.74 18.8 12.74 18.6C13.14 18.5 13.37 18.37 13.43 18.21C13.51 18.05 13.57 17.98 13.61 18C13.73 18.06 13.84 18.09 13.94 18.09C13.8 18.09 13.76 18.07 13.82 18.03C13.88 17.99 14.15 17.89 14.63 17.73L16.82 17.46L17.27 17.79C17.59 17.87 17.83 17.89 17.99 17.85C18.15 17.81 18.26 17.74 18.32 17.64C18.38 17.52 18.41 17.39 18.41 17.25C18.43 17.11 18.45 16.99 18.47 16.89C18.51 16.67 18.46 16.49 18.32 16.35C18.2 16.19 18.03 16.05 17.81 15.93C17.77 15.71 17.69 15.46 17.57 15.18C17.47 14.88 17.34 14.53 17.18 14.13C17.04 13.75 16.91 13.35 16.79 12.93C16.69 12.49 16.6 12.09 16.52 11.73C16.44 11.37 16.38 11.07 16.34 10.83C16.3 10.59 16.27 10.45 16.25 10.41C15.97 10.23 15.74 10.22 15.56 10.38C15.38 10.52 15.23 10.73 15.11 11.01C15.01 11.29 14.94 11.59 14.9 11.91C14.88 12.21 14.88 12.42 14.9 12.54C14.88 12.58 14.83 12.65 14.75 12.75C14.67 12.83 14.58 12.92 14.48 13.02C14.38 13.12 14.29 13.22 14.21 13.32C14.13 13.4 14.08 13.46 14.06 13.5C13.98 13.64 13.96 13.79 14 13.95C14.04 14.11 14.01 14.25 13.91 14.37C13.51 15.09 13.04 15.66 12.5 16.08C12.36 16.2 12.25 16.37 12.17 16.59C12.09 16.81 12.04 17.04 12.02 17.28C12 17.52 12.02 17.76 12.08 18C12.14 18.22 12.25 18.4 12.41 18.54C12.21 18.66 12.05 18.79 11.93 18.93C11.83 19.05 11.74 19.19 11.66 19.35C11.6 19.49 11.54 19.65 11.48 19.83C11.42 19.99 11.35 20.17 11.27 20.37C10.93 21.27 10.76 21.74 10.76 21.78L10.34 22.65L9.95 24.24C9.97 24.54 9.86 24.72 9.62 24.78C9.4 24.84 9.04 24.87 8.54 24.87C8.06 24.99 7.64 25.05 7.28 25.05C6.92 25.03 6.8 24.84 6.92 24.48C7.44 23.24 7.82 22.32 8.06 21.72C8.32 21.1 8.45 20.63 8.45 20.31C8.45 20.21 8.49 20.13 8.57 20.07C8.67 19.99 8.75 19.93 8.81 19.89C8.83 19.85 8.9 19.64 9.02 19.26C9.16 18.88 9.31 18.46 9.47 18C9.63 17.52 9.78 17.07 9.92 16.65C10.08 16.21 10.2 15.91 10.28 15.75C10.46 15.37 10.67 14.94 10.91 14.46C11.17 13.98 11.47 13.52 11.81 13.08C11.99 12.84 12.14 12.51 12.26 12.09C12.4 11.67 12.53 11.21 12.65 10.71C12.77 10.21 12.9 9.7 13.04 9.18C13.18 8.66 13.36 8.18 13.58 7.74C13.7 7.7 14.05 7.26 14.63 6.42C14.67 6.38 14.7 6.34 14.72 6.3C14.76 6.24 14.8 6.19 14.84 6.15L18.68 5.91C18.76 6.01 18.85 6.13 18.95 6.27C19.05 6.41 19.16 6.56 19.28 6.72C19.66 7.2 19.89 7.58 19.97 7.86C20.05 8.14 20.1 8.33 20.12 8.43C20.08 8.49 20.29 9.17 20.75 10.47C20.87 10.79 20.97 11.15 21.05 11.55C21.13 11.95 21.19 12.33 21.23 12.69C21.27 13.03 21.29 13.33 21.29 13.59C21.29 13.83 21.28 13.96 21.26 13.98C21.22 14 21.54 14.25 22.22 14.73C22.38 14.85 22.47 14.96 22.49 15.06C22.53 15.16 22.53 15.25 22.49 15.33C22.47 15.41 22.43 15.48 22.37 15.54C22.31 15.6 22.28 15.64 22.28 15.66L23.09 16.74C23.09 16.74 23.32 17.61 23.78 19.35C24.04 20.19 24.23 20.91 24.35 21.51C24.47 22.09 24.53 22.54 24.53 22.86C24.53 22.9 24.54 22.93 24.56 22.95C24.56 22.93 24.58 22.98 24.62 23.1L24.44 23.88Z" fill="white" fill-opacity="0.9"/>
</g>
<defs>
<filter id="filter0_b_86_9" x="-4" y="-4" width="41" height="41" filterUnits="userSpaceOnUse" color-interpolation-filters="sRGB">
<feFlood flood-opacity="0" result="BackgroundImageFix"/>
<feGaussianBlur in="BackgroundImageFix" stdDeviation="2"/>
<feComposite in2="SourceAlpha" operator="in" result="effect1_backgroundBlur_86_9"/>
<feBlend mode="normal" in="SourceGraphic" in2="effect1_backgroundBlur_86_9" result="shape"/>
</filter>
<linearGradient id="paint0_linear_86_9" x1="16.0374" y1="50.0323" x2="17.8723" y2="0.0617118" gradientUnits="userSpaceOnUse">
<stop stop-color="#022055"/>
<stop offset="1" stop-color="#021337"/>
</linearGradient>
</defs>
</svg>
